<svg height="512pt" viewBox="-1 0 512 512" width="512pt" xmlns="http://www.w3.org/2000/svg"><path d="m501.566406 22.753906v466.492188c0 8.34375-6.824218 15.167968-15.167968 15.167968h-463.644532c-8.34375 0-15.167968-6.824218-15.167968-15.167968v-466.492188c0-8.34375 6.824218-15.167968 15.167968-15.167968h463.644532c8.34375 0 15.167968 6.824218 15.167968 15.167968zm0 0" fill="#fff4f1"/><path d="m486.398438 7.585938h-30.335938c8.34375 0 15.167969 6.824218 15.167969 15.167968v466.492188c0 8.34375-6.824219 15.167968-15.167969 15.167968h30.335938c8.34375 0 15.167968-6.824218 15.167968-15.167968v-466.492188c0-8.34375-6.824218-15.167968-15.167968-15.167968zm0 0" fill="#ecedef"/><path d="m501.566406 98.875v-76.121094c0-8.34375-6.824218-15.167968-15.167968-15.167968h-463.644532c-8.34375 0-15.167968 6.824218-15.167968 15.167968v76.121094zm0 0" fill="#b0adb4"/><path d="m486.398438 7.585938h-30.335938c8.34375 0 15.167969 6.824218 15.167969 15.167968v76.121094h30.335937v-76.121094c0-8.34375-6.824218-15.167968-15.167968-15.167968zm0 0" fill="#75737b"/><g fill="#fff4f1"><path d="m85.097656 47.082031v12.660157c0 8.34375-6.828125 15.167968-15.167968 15.167968h-12.664063c-8.339844 0-15.167969-6.824218-15.167969-15.167968v-12.660157c0-8.34375 6.828125-15.167969 15.167969-15.167969h12.664063c8.339843 0 15.167968 6.824219 15.167968 15.167969zm0 0"/><path d="m161.484375 47.082031v12.660157c0 8.34375-6.824219 15.167968-15.167969 15.167968h-12.660156c-8.339844 0-15.167969-6.824218-15.167969-15.167968v-12.660157c0-8.34375 6.828125-15.167969 15.167969-15.167969h12.660156c8.34375 0 15.167969 6.824219 15.167969 15.167969zm0 0"/><path d="m237.878906 47.082031v12.660157c0 8.34375-6.828125 15.167968-15.167968 15.167968h-12.660157c-8.34375 0-15.167969-6.824218-15.167969-15.167968v-12.660157c0-8.34375 6.824219-15.167969 15.167969-15.167969h12.660157c8.339843 0 15.167968 6.824219 15.167968 15.167969zm0 0"/><path d="m314.269531 47.082031v12.660157c0 8.34375-6.824219 15.167968-15.167969 15.167968h-12.660156c-8.34375 0-15.167968-6.824218-15.167968-15.167968v-12.660157c0-8.34375 6.824218-15.167969 15.167968-15.167969h12.660156c8.34375 0 15.167969 6.824219 15.167969 15.167969zm0 0"/><path d="m390.660156 47.082031v12.660157c0 8.34375-6.824218 15.167968-15.167968 15.167968h-12.660157c-8.34375 0-15.167969-6.824218-15.167969-15.167968v-12.660157c0-8.34375 6.824219-15.167969 15.167969-15.167969h12.660157c8.34375 0 15.167968 6.824219 15.167968 15.167969zm0 0"/><path d="m467.050781 47.082031v12.660157c0 8.34375-6.824219 15.167968-15.167969 15.167968h-12.660156c-8.34375 0-15.167968-6.824218-15.167968-15.167968v-12.660157c0-8.34375 6.824218-15.167969 15.167968-15.167969h12.660156c8.34375 0 15.167969 6.824219 15.167969 15.167969zm0 0"/></g><path d="m7.585938 413.125v76.121094c0 8.34375 6.824218 15.167968 15.167968 15.167968h463.644532c8.34375 0 15.167968-6.824218 15.167968-15.167968v-76.121094zm0 0" fill="#b0adb4"/><path d="m471.230469 413.125v76.121094c0 8.34375-6.824219 15.167968-15.167969 15.167968h30.335938c8.34375 0 15.167968-6.824218 15.167968-15.167968v-76.121094zm0 0" fill="#75737b"/><path d="m424.054688 464.917969v-12.660157c0-8.34375 6.824218-15.167968 15.167968-15.167968h12.660156c8.34375 0 15.167969 6.824218 15.167969 15.167968v12.660157c0 8.34375-6.824219 15.167969-15.167969 15.167969h-12.660156c-8.34375 0-15.167968-6.824219-15.167968-15.167969zm0 0" fill="#fff4f1"/><path d="m347.664062 464.917969v-12.660157c0-8.34375 6.824219-15.167968 15.167969-15.167968h12.660157c8.34375 0 15.167968 6.824218 15.167968 15.167968v12.660157c0 8.34375-6.824218 15.167969-15.167968 15.167969h-12.660157c-8.34375 0-15.167969-6.824219-15.167969-15.167969zm0 0" fill="#fff4f1"/><path d="m271.273438 464.917969v-12.660157c0-8.34375 6.824218-15.167968 15.167968-15.167968h12.660156c8.34375 0 15.167969 6.824218 15.167969 15.167968v12.660157c0 8.34375-6.824219 15.167969-15.167969 15.167969h-12.660156c-8.34375 0-15.167968-6.824219-15.167968-15.167969zm0 0" fill="#fff4f1"/><path d="m194.882812 464.917969v-12.660157c0-8.34375 6.824219-15.167968 15.167969-15.167968h12.660157c8.339843 0 15.167968 6.824218 15.167968 15.167968v12.660157c0 8.34375-6.828125 15.167969-15.167968 15.167969h-12.660157c-8.34375 0-15.167969-6.824219-15.167969-15.167969zm0 0" fill="#fff4f1"/><path d="m118.492188 464.917969v-12.660157c0-8.34375 6.824218-15.167968 15.167968-15.167968h12.660156c8.339844 0 15.167969 6.824218 15.167969 15.167968v12.660157c0 8.34375-6.828125 15.167969-15.167969 15.167969h-12.660156c-8.34375 0-15.167968-6.824219-15.167968-15.167969zm0 0" fill="#fff4f1"/><path d="m42.097656 464.917969v-12.660157c0-8.34375 6.828125-15.167968 15.167969-15.167968h12.664063c8.339843 0 15.167968 6.824218 15.167968 15.167968v12.660157c0 8.34375-6.828125 15.167969-15.167968 15.167969h-12.664063c-8.339844 0-15.167969-6.824219-15.167969-15.167969zm0 0" fill="#fff4f1"/><path d="m360.726562 413.542969c-5.4375-53.683594-51.097656-95.941407-106.152343-95.941407-55.050781 0-100.714844 42.261719-106.152344 95.941407zm0 0" fill="#8cc76e"/><path d="m254.574219 317.601562c-5.144531 0-10.210938.371094-15.167969 1.082032 48.074219 6.917968 86.058594 46.195312 90.984375 94.859375h30.335937c-5.4375-53.683594-51.097656-95.941407-106.152343-95.941407zm0 0" fill="#6eb75e"/><path d="m355.980469 253.960938c0 53.433593-59.492188 99.113281-87.339844 117.574218-8.527344 5.648438-19.605469 5.648438-28.132813 0-27.847656-18.460937-87.339843-64.140625-87.339843-117.574218 0-69.761719 20.285156-127.4375 101.40625-126.3125 78.988281 1.097656 101.40625 56.550781 101.40625 126.3125zm0 0" fill="#8cc76e"/><path d="m254.574219 127.648438c-6.09375-.085938-11.839844.167968-17.269531.730468 68.417968 6.800782 88.339843 59.835938 88.339843 125.582032 0 52.738281-57.953125 97.925781-86.238281 116.835937.371094.25.742188.496094 1.105469.738281 8.523437 5.648438 19.601562 5.648438 28.128906 0 27.847656-18.460937 87.339844-64.144531 87.339844-117.574218 0-69.761719-22.417969-125.214844-101.40625-126.3125zm0 0" fill="#6eb75e"/><path d="m234.84375 261.351562c-7.078125-15.492187-22.476562-23.632812-34.390625-18.1875-11.914063 5.441407-15.835937 22.414063-8.757813 37.902344 7.078126 15.488282 22.472657 23.632813 34.390626 18.1875 11.914062-5.445312 15.835937-22.414062 8.757812-37.902344zm0 0" fill="#504e54"/><path d="m310.152344 243.1875c-11.914063-5.445312-27.3125 2.699219-34.390625 18.1875s-3.15625 32.460938 8.757812 37.902344c11.917969 5.445312 27.3125-2.695313 34.390625-18.1875 7.078125-15.488282 3.15625-32.457032-8.757812-37.902344zm0 0" fill="#504e54"/><path d="m429.628906 335.988281c0-11.605469-9.40625-21.015625-21.011718-21.015625-11.605469 0-21.011719 9.410156-21.011719 21.015625 0 8.1875 4.6875 15.277344 11.523437 18.746094l-10.113281 57.058594h40.355469l-10.109375-57.691407c6.203125-3.652343 10.367187-10.394531 10.367187-18.113281zm0 0" fill="#529edf"/><path d="m120.21875 335.988281c0-11.605469-9.40625-21.015625-21.011719-21.015625s-21.015625 9.410156-21.015625 21.015625c0 8.1875 4.6875 15.277344 11.523438 18.746094l-10.113282 57.058594h40.359376l-10.113282-57.691407c6.203125-3.652343 10.371094-10.394531 10.371094-18.113281zm0 0" fill="#529edf"/><path d="m501.566406 253.003906c-4.1875 0-7.585937 3.394532-7.585937 7.582032v144.957031h-58.003907l-8.433593-48.128907c6.0625-5.375 9.671875-13.1875 9.671875-21.425781 0-15.769531-12.828125-28.597656-28.597656-28.597656-15.769532 0-28.597657 12.828125-28.597657 28.597656 0 8.855469 4.015625 17.003907 10.765625 22.363281l-8.363281 47.191407h-15.128906c-4.671875-27.992188-19.699219-53.308594-42.203125-71.023438 1.113281-1.179687 2.214844-2.375 3.304687-3.582031 23.335938-25.953125 35.167969-51.847656 35.167969-76.972656 0-40.574219-7.324219-71.050782-22.394531-93.175782-18.035157-26.476562-47.132813-40.175781-86.488281-40.722656-32.515626-.433594-58.164063 8.3125-76.140626 26.042969-22.171874 21.867187-32.953124 57.148437-32.953124 107.855469 0 25.125 11.835937 51.019531 35.171874 76.972656 1.09375 1.210938 2.195313 2.40625 3.308594 3.589844-22.523437 17.710937-37.539062 42.964844-42.210937 71.015625h-15.289063l-8.4375-48.128907c6.066406-5.375 9.671875-13.1875 9.671875-21.425781 0-15.769531-12.828125-28.597656-28.59375-28.597656-15.769531 0-28.597656 12.828125-28.597656 28.597656 0 8.855469 4.015625 17.003907 10.761719 22.363281l-8.359375 47.191407h-57.84375v-239.535157c0-4.1875-3.394531-7.582031-7.582031-7.582031-4.191407 0-7.585938 3.394531-7.585938 7.582031v323.238282c0 12.546875 10.207031 22.753906 22.753906 22.753906h463.644532c12.546874 0 22.753906-10.207031 22.753906-22.753906v-228.660156c0-4.1875-3.398438-7.582032-7.585938-7.582032zm-92.949218 69.554688c7.40625 0 13.429687 6.023437 13.429687 13.429687 0 4.734375-2.542969 9.171875-6.632813 11.578125-2.722656 1.605469-4.167968 4.730469-3.621093 7.84375l8.550781 48.800782h-22.28125l8.53125-48.15625c.585938-3.289063-1.054688-6.574219-4.035156-8.085938-4.546875-2.304688-7.371094-6.898438-7.371094-11.980469 0-7.40625 6.027344-13.429687 13.429688-13.429687zm-309.410157 0c7.402344 0 13.425781 6.023437 13.425781 13.429687 0 4.734375-2.539062 9.167969-6.632812 11.578125-2.722656 1.605469-4.167969 4.730469-3.621094 7.84375l8.554688 48.800782h-22.285156l8.535156-48.15625c.582031-3.289063-1.054688-6.574219-4.039063-8.085938-4.542969-2.304688-7.367187-6.898438-7.367187-11.980469 0-7.40625 6.023437-13.429687 13.429687-13.429687zm61.546875-68.597656c0-46.4375 9.300782-78.183594 28.433594-97.050782 14.789062-14.585937 35.417969-21.695312 63.007812-21.695312.753907 0 1.511719.007812 2.273438.015625 64.082031.890625 93.925781 38.617187 93.925781 118.730469 0 50.195312-58.703125 94.523437-83.945312 111.25-6 3.980468-13.753907 3.980468-19.75 0-25.238281-16.726563-83.945313-61.054688-83.945313-111.25zm34.132813 91.355468c14.785156 13.878906 30.042969 24.992188 41.433593 32.539063 5.542969 3.675781 11.898438 5.511719 18.253907 5.511719s12.710937-1.835938 18.257812-5.511719c11.382813-7.542969 26.632813-18.652344 41.414063-32.519531 19.652344 14.898437 33.015625 36.34375 37.640625 60.207031h-194.628907c4.621094-23.910157 17.960938-45.320313 37.628907-60.226563zm299.09375 143.929688c0 4.183594-3.398438 7.585937-7.582031 7.585937h-463.644532c-4.183594 0-7.585937-3.402343-7.585937-7.585937v-68.535156h478.8125zm0 0"/><path d="m486.398438 0h-463.644532c-12.546875 0-22.753906 10.207031-22.753906 22.753906v112.917969c0 4.191406 3.394531 7.585937 7.585938 7.585937 4.1875 0 7.582031-3.394531 7.582031-7.585937v-29.214844h478.8125v123.792969c0 4.1875 3.398437 7.585938 7.585937 7.585938s7.585938-3.398438 7.585938-7.585938v-207.496094c0-12.546875-10.207032-22.753906-22.753906-22.753906zm-471.230469 91.289062v-68.535156c0-3.660156 2.605469-6.722656 6.058593-7.429687.492188-.101563 1.003907-.15625 1.527344-.15625h463.644532c.523437 0 1.035156.054687 1.527343.15625 3.453125.707031 6.054688 3.769531 6.054688 7.429687v68.535156zm0 0"/><path d="m69.929688 24.332031h-12.664063c-12.542969 0-22.75 10.203125-22.75 22.75v12.660157c0 12.546874 10.207031 22.753906 22.75 22.753906h12.664063c12.542968 0 22.75-10.207032 22.75-22.753906v-12.660157c0-12.546875-10.207032-22.75-22.75-22.75zm7.582031 35.410157c0 4.183593-3.402344 7.582031-7.582031 7.582031h-12.664063c-4.179687 0-7.582031-3.398438-7.582031-7.582031v-12.660157c0-4.183593 3.402344-7.585937 7.582031-7.585937h12.664063c4.179687 0 7.582031 3.402344 7.582031 7.585937zm0 0"/><path d="m146.316406 24.332031h-12.660156c-12.542969 0-22.75 10.203125-22.75 22.75v12.660157c0 12.546874 10.207031 22.753906 22.75 22.753906h12.660156c12.546875 0 22.753906-10.207032 22.753906-22.753906v-12.660157c0-12.546875-10.207031-22.75-22.753906-22.75zm7.585938 35.410157c0 4.183593-3.402344 7.582031-7.585938 7.582031h-12.660156c-4.179688 0-7.582031-3.398438-7.582031-7.582031v-12.660157c0-4.183593 3.402343-7.585937 7.582031-7.585937h12.660156c4.183594 0 7.585938 3.402344 7.585938 7.585937zm0 0"/><path d="m222.710938 24.332031h-12.660157c-12.546875 0-22.753906 10.203125-22.753906 22.75v12.660157c0 12.546874 10.207031 22.753906 22.753906 22.753906h12.660157c12.542968 0 22.75-10.207032 22.75-22.753906v-12.660157c0-12.546875-10.207032-22.75-22.75-22.75zm7.582031 35.410157c0 4.183593-3.402344 7.582031-7.582031 7.582031h-12.660157c-4.183593 0-7.585937-3.398438-7.585937-7.582031v-12.660157c0-4.183593 3.402344-7.585937 7.585937-7.585937h12.660157c4.179687 0 7.582031 3.402344 7.582031 7.585937zm0 0"/><path d="m299.101562 24.332031h-12.660156c-12.546875 0-22.753906 10.203125-22.753906 22.75v12.660157c0 12.546874 10.207031 22.753906 22.753906 22.753906h12.660156c12.546876 0 22.75-10.207032 22.75-22.753906v-12.660157c0-12.546875-10.203124-22.75-22.75-22.75zm7.582032 35.410157c0 4.183593-3.398438 7.582031-7.582032 7.582031h-12.660156c-4.183594 0-7.585937-3.398438-7.585937-7.582031v-12.660157c0-4.183593 3.402343-7.585937 7.585937-7.585937h12.660156c4.183594 0 7.582032 3.402344 7.582032 7.585937zm0 0"/><path d="m375.492188 24.332031h-12.660157c-12.546875 0-22.75 10.203125-22.75 22.75v12.660157c0 12.546874 10.203125 22.753906 22.75 22.753906h12.660157c12.546874 0 22.753906-10.207032 22.753906-22.753906v-12.660157c0-12.546875-10.207032-22.75-22.753906-22.75zm7.585937 35.410157c0 4.183593-3.402344 7.582031-7.585937 7.582031h-12.660157c-4.183593 0-7.582031-3.398438-7.582031-7.582031v-12.660157c0-4.183593 3.398438-7.585937 7.582031-7.585937h12.660157c4.183593 0 7.585937 3.402344 7.585937 7.585937zm0 0"/><path d="m451.882812 24.332031h-12.660156c-12.546875 0-22.753906 10.203125-22.753906 22.75v12.660157c0 12.546874 10.207031 22.753906 22.753906 22.753906h12.660156c12.546876 0 22.753907-10.207032 22.753907-22.753906v-12.660157c0-12.546875-10.207031-22.75-22.753907-22.75zm7.585938 35.410157c0 4.183593-3.402344 7.582031-7.585938 7.582031h-12.660156c-4.183594 0-7.585937-3.398438-7.585937-7.582031v-12.660157c0-4.183593 3.402343-7.585937 7.585937-7.585937h12.660156c4.183594 0 7.585938 3.402344 7.585938 7.585937zm0 0"/><path d="m439.222656 487.671875h12.660156c12.546876 0 22.753907-10.207031 22.753907-22.753906v-12.660157c0-12.546874-10.207031-22.75-22.753907-22.75h-12.660156c-12.546875 0-22.75 10.203126-22.75 22.75v12.660157c0 12.546875 10.203125 22.753906 22.75 22.753906zm-7.582031-35.414063c0-4.183593 3.402344-7.582031 7.582031-7.582031h12.660156c4.183594 0 7.585938 3.398438 7.585938 7.582031v12.660157c0 4.183593-3.402344 7.585937-7.585938 7.585937h-12.660156c-4.179687 0-7.582031-3.402344-7.582031-7.585937zm0 0"/><path d="m362.832031 429.507812c-12.546875 0-22.75 10.203126-22.75 22.75v12.660157c0 12.546875 10.203125 22.753906 22.75 22.753906h12.660157c12.546874 0 22.753906-10.207031 22.753906-22.753906v-12.660157c0-12.546874-10.207032-22.75-22.753906-22.75zm20.246094 22.75v12.660157c0 4.183593-3.402344 7.585937-7.585937 7.585937h-12.660157c-4.183593 0-7.582031-3.402344-7.582031-7.585937v-12.660157c0-4.183593 3.398438-7.582031 7.582031-7.582031h12.660157c4.179687 0 7.585937 3.398438 7.585937 7.582031zm0 0"/><path d="m299.101562 429.507812h-12.660156c-12.546875 0-22.753906 10.203126-22.753906 22.75v12.660157c0 12.546875 10.207031 22.753906 22.753906 22.753906h12.660156c12.546876 0 22.75-10.207031 22.75-22.753906v-12.660157c0-12.546874-10.203124-22.75-22.75-22.75zm7.582032 35.410157c0 4.183593-3.398438 7.585937-7.582032 7.585937h-12.660156c-4.183594 0-7.585937-3.402344-7.585937-7.585937v-12.660157c0-4.183593 3.402343-7.582031 7.585937-7.582031h12.660156c4.183594 0 7.582032 3.398438 7.582032 7.582031zm0 0"/><path d="m222.710938 429.507812h-12.660157c-12.546875 0-22.753906 10.203126-22.753906 22.75v12.660157c0 12.546875 10.207031 22.753906 22.753906 22.753906h12.660157c12.542968 0 22.75-10.207031 22.75-22.753906v-12.660157c0-12.546874-10.207032-22.75-22.75-22.75zm7.582031 35.410157c0 4.183593-3.402344 7.585937-7.582031 7.585937h-12.660157c-4.183593 0-7.585937-3.402344-7.585937-7.585937v-12.660157c0-4.183593 3.402344-7.582031 7.585937-7.582031h12.660157c4.179687 0 7.582031 3.398438 7.582031 7.582031zm0 0"/><path d="m146.316406 429.507812h-12.660156c-12.542969 0-22.75 10.203126-22.75 22.75v12.660157c0 12.546875 10.207031 22.753906 22.75 22.753906h12.660156c12.546875 0 22.753906-10.207031 22.753906-22.753906v-12.660157c0-12.546874-10.207031-22.75-22.753906-22.75zm7.585938 35.410157c0 4.183593-3.402344 7.585937-7.585938 7.585937h-12.660156c-4.179688 0-7.582031-3.402344-7.582031-7.585937v-12.660157c0-4.183593 3.402343-7.582031 7.582031-7.582031h12.660156c4.183594 0 7.585938 3.398438 7.585938 7.582031zm0 0"/><path d="m69.929688 429.507812h-12.664063c-12.542969 0-22.75 10.203126-22.75 22.75v12.660157c0 12.546875 10.207031 22.753906 22.75 22.753906h12.664063c12.542968 0 22.75-10.207031 22.75-22.753906v-12.660157c0-12.546874-10.207032-22.75-22.75-22.75zm7.582031 35.410157c0 4.183593-3.402344 7.585937-7.582031 7.585937h-12.664063c-4.179687 0-7.582031-3.402344-7.582031-7.585937v-12.660157c0-4.183593 3.402344-7.582031 7.582031-7.582031h12.664063c4.179687 0 7.582031 3.398438 7.582031 7.582031zm0 0"/><path d="m210.957031 173.570312c1.320313 0 2.660157-.347656 3.878907-1.074218 10.167968-6.070313 23.921874-9.058594 40.921874-8.851563 15.101563.175781 27.714844 2.8125 37.480469 7.832031 3.730469 1.917969 8.300781.449219 10.214844-3.277343 1.914063-3.726563.445313-8.296875-3.277344-10.210938-11.882812-6.109375-26.765625-9.308593-44.242187-9.511719-19.820313-.238281-36.269532 3.46875-48.875 10.996094-3.597656 2.148438-4.769532 6.804688-2.625 10.398438 1.425781 2.378906 3.941406 3.699218 6.523437 3.699218zm0 0"/><path d="m210.957031 206.601562c1.320313 0 2.660157-.34375 3.878907-1.074218 10.167968-6.070313 23.925781-9.054688 40.921874-8.847656 15.101563.171874 27.714844 2.808593 37.484376 7.832031 3.726562 1.914062 8.296874.445312 10.210937-3.28125 1.914063-3.722657.445313-8.296875-3.277344-10.210938-11.882812-6.105469-26.765625-9.304687-44.242187-9.507812-19.824219-.226563-36.269532 3.46875-48.875 10.996093-3.59375 2.144532-4.769532 6.800782-2.621094 10.398438 1.421875 2.378906 3.9375 3.695312 6.519531 3.695312zm0 0"/><path d="m218.234375 308.519531c3.832031 0 7.570313-.78125 11.015625-2.351562 7.835938-3.582031 13.574219-11.011719 15.738281-20.378907 2.027344-8.78125.878907-18.574218-3.234375-27.578124-8.804687-19.269532-28.742187-29.109376-44.441406-21.9375-7.839844 3.582031-13.574219 11.011718-15.738281 20.378906-2.03125 8.78125-.882813 18.574218 3.234375 27.578125 4.113281 9.003906 10.765625 16.285156 18.734375 20.496093 4.761719 2.523438 9.800781 3.792969 14.691406 3.792969zm-21.882813-48.453125c1.113282-4.8125 3.691407-8.363281 7.261719-9.996094 1.484375-.675781 3.078125-1 4.726563-1 7.183594 0 15.355468 6.117188 19.617187 15.445313 2.691407 5.890625 3.511719 12.402344 2.25 17.859375-1.113281 4.8125-3.691406 8.363281-7.265625 9.996094-3.570312 1.632812-7.941406 1.257812-12.3125-1.050782-4.949218-2.621093-9.335937-7.5-12.027344-13.394531-2.691406-5.890625-3.511718-12.402343-2.25-17.859375zm0 0"/><path d="m268.878906 258.210938c-8.808594 19.269531-3.195312 40.78125 12.503906 47.957031 3.480469 1.589843 7.171876 2.34375 10.902344 2.34375 13.09375 0 26.6875-9.285157 33.539063-24.28125 8.804687-19.269531 3.191406-40.78125-12.507813-47.957031-15.699218-7.171876-35.632812 2.667968-44.4375 21.9375zm43.148438 19.714843c-5.238282 11.464844-16.386719 18.078125-24.339844 14.445313-7.957031-3.636719-10.253906-16.394532-5.015625-27.855469 5.238281-11.464844 16.386719-18.082031 24.34375-14.445313 7.953125 3.636719 10.25 16.390626 5.011719 27.855469zm0 0"/></svg>